<svg width="251.24250488281248px" height="126.802490234375px" xmlns="http://www.w3.org/2000/svg" viewBox="124.37874755859376 11.5987548828125 251.24250488281248 126.802490234375" style="background: rgba(0, 0, 0, 0);" preserveAspectRatio="xMidYMid"><defs><filter id="editing-extrusion" x="-100%" y="-100%" width="300%" height="300%"><feFlood result="color1" flood-color="rgba(86.37326145552555%,37.24528301886792%,100%,0.413)"></feFlood><feConvolveMatrix order="3,3" divisor="1" kernelMatrix="1 0 0 0 1 0 0 0 1" in="SourceAlpha" result="extrude"></feConvolveMatrix><feComposite in="color1" in2="extrude" result="comp-extrude" operator="in"></feComposite><feOffset dx="1.5" dy="1.5" in="comp-extrude" result="offset-extrude"></feOffset><feMerge><feMergeNode in="offset-extrude"></feMergeNode><feMergeNode in="SourceGraphic"></feMergeNode></feMerge></filter></defs><g filter="url(#editing-extrusion)"><g transform="translate(166.35000276565552, 102.54500007629395)"><path d="M23.73-38.64L23.73-38.64Q29.26-38.64 33.67-36.12L33.67-36.12L33.67-36.12Q38.08-33.60 40.64-29.12L40.64-29.12L40.64-29.12Q43.19-24.64 43.19-19.11L43.19-19.11L43.19-19.11Q43.19-13.58 40.67-9.14L40.67-9.14L40.67-9.14Q38.15-4.69 33.71-2.17L33.71-2.17L33.71-2.17Q29.26 0.35 23.73 0.35L23.73 0.35L23.73 0.35Q18.20 0.35 13.76-2.17L13.76-2.17L13.76-2.17Q9.31-4.69 6.79-9.14L6.79-9.14L6.79-9.14Q4.27-13.58 4.27-19.11L4.27-19.11L4.27-19.11Q4.27-24.64 6.79-29.12L6.79-29.12L6.79-29.12Q9.31-33.60 13.76-36.12L13.76-36.12L13.76-36.12Q18.20-38.64 23.73-38.64L23.73-38.64ZM23.73-33.74L23.73-33.74Q19.74-33.74 16.49-31.85L16.49-31.85L16.49-31.85Q13.23-29.96 11.38-26.64L11.38-26.64L11.38-26.64Q9.52-23.31 9.52-19.11L9.52-19.11L9.52-19.11Q9.52-14.98 11.38-11.66L11.38-11.66L11.38-11.66Q13.23-8.33 16.49-6.44L16.49-6.44L16.49-6.44Q19.74-4.55 23.73-4.55L23.73-4.55L23.73-4.55Q27.79-4.55 31.01-6.44L31.01-6.44L31.01-6.44Q34.23-8.33 36.05-11.66L36.05-11.66L36.05-11.66Q37.87-14.98 37.87-19.11L37.87-19.11L37.87-19.11Q37.87-23.31 36.05-26.64L36.05-26.64L36.05-26.64Q34.23-29.96 31.01-31.85L31.01-31.85L31.01-31.85Q27.79-33.74 23.73-33.74L23.73-33.74ZM66.92-38.64L66.92-38.64Q71.54-38.64 74.97-37.07L74.97-37.07L74.97-37.07Q78.40-35.49 80.50-32.69L80.50-32.69L80.50-32.69Q81.06-31.78 81.06-31.08L81.06-31.08L81.06-31.08Q81.06-29.89 79.94-29.19L79.94-29.19L79.94-29.19Q79.45-28.84 78.61-28.84L78.61-28.84L78.61-28.84Q77.14-28.84 76.16-29.89L76.16-29.89L76.16-29.89Q72.73-33.81 66.78-33.81L66.78-33.81L66.78-33.81Q62.93-33.81 60.62-32.24L60.62-32.24L60.62-32.24Q58.31-30.66 58.31-28.28L58.31-28.28L58.31-28.28Q58.31-25.76 60.48-24.26L60.48-24.26L60.48-24.26Q62.65-22.75 68.18-21.84L68.18-21.84L68.18-21.84Q75.67-20.58 78.89-17.75L78.89-17.75L78.89-17.75Q82.11-14.91 82.11-10.71L82.11-10.71L82.11-10.71Q82.11-7.49 80.19-4.97L80.19-4.97L80.19-4.97Q78.26-2.45 74.83-1.05L74.83-1.05L74.83-1.05Q71.40 0.35 67.06 0.35L67.06 0.35L67.06 0.35Q62.72 0.35 58.73-1.12L58.73-1.12L58.73-1.12Q54.74-2.59 52.29-5.25L52.29-5.25L52.29-5.25Q51.59-6.09 51.59-6.86L51.59-6.86L51.59-6.86Q51.59-8.05 52.71-8.96L52.71-8.96L52.71-8.96Q53.55-9.59 54.46-9.59L54.46-9.59L54.46-9.59Q55.65-9.59 56.49-8.61L56.49-8.61L56.49-8.61Q58.17-6.65 60.94-5.60L60.94-5.60L60.94-5.60Q63.70-4.55 67.06-4.55L67.06-4.55L67.06-4.55Q71.96-4.55 74.41-6.23L74.41-6.23L74.41-6.23Q76.86-7.91 76.93-10.64L76.93-10.64L76.93-10.64Q76.93-13.16 74.48-14.84L74.48-14.84L74.48-14.84Q72.03-16.52 66.71-17.36L66.71-17.36L66.71-17.36Q59.85-18.48 56.46-21.25L56.46-21.25L56.46-21.25Q53.06-24.01 53.06-27.93L53.06-27.93L53.06-27.93Q53.06-33.04 57.02-35.84L57.02-35.84L57.02-35.84Q60.97-38.64 66.92-38.64L66.92-38.64ZM131.74-38.71L131.74-38.71Q135.87-38.71 139.06-36.75L139.06-36.75L139.06-36.75Q142.24-34.79 144.03-31.19L144.03-31.19L144.03-31.19Q145.81-27.58 145.81-22.82L145.81-22.82L145.81-2.66L145.81-2.66Q145.81-1.47 145.08-0.74L145.08-0.74L145.08-0.74Q144.34 0 143.15 0L143.15 0L143.15 0Q141.96 0 141.19-0.74L141.19-0.74L141.19-0.74Q140.42-1.47 140.42-2.66L140.42-2.66L140.42-22.82L140.42-22.82Q140.42-27.79 137.87-30.70L137.87-30.70L137.87-30.70Q135.31-33.60 131.18-33.60L131.18-33.60L131.18-33.60Q126.77-33.60 124.04-30.66L124.04-30.66L124.04-30.66Q121.31-27.72 121.38-22.96L121.38-22.96L121.38-22.82L121.38-2.66L121.38-2.66Q121.38-1.47 120.65-0.74L120.65-0.74L120.65-0.74Q119.91 0 118.72 0L118.72 0L118.72 0Q117.53 0 116.76-0.74L116.76-0.74L116.76-0.74Q115.99-1.47 115.99-2.66L115.99-2.66L115.99-22.82L115.99-22.82Q115.99-27.79 113.44-30.70L113.44-30.70L113.44-30.70Q110.88-33.60 106.75-33.60L106.75-33.60L106.75-33.60Q102.41-33.60 99.61-30.73L99.61-30.73L99.61-30.73Q96.81-27.86 96.81-23.38L96.81-23.38L96.81-2.66L96.81-2.66Q96.81-1.47 96.08-0.74L96.08-0.74L96.08-0.74Q95.34 0 94.15 0L94.15 0L94.15 0Q92.96 0 92.19-0.74L92.19-0.74L92.19-0.74Q91.42-1.47 91.42-2.66L91.42-2.66L91.42-35.56L91.42-35.56Q91.42-36.75 92.19-37.52L92.19-37.52L92.19-37.52Q92.96-38.29 94.15-38.29L94.15-38.29L94.15-38.29Q95.34-38.29 96.08-37.52L96.08-37.52L96.08-37.52Q96.81-36.75 96.81-35.56L96.81-35.56L96.81-34.02L96.81-34.02Q98.77-36.26 101.47-37.49L101.47-37.49L101.47-37.49Q104.16-38.71 107.31-38.71L107.31-38.71L107.31-38.71Q111.16-38.71 114.24-36.96L114.24-36.96L114.24-36.96Q117.32-35.21 119.14-32.06L119.14-32.06L119.14-32.06Q121.17-35.21 124.43-36.96L124.43-36.96L124.43-36.96Q127.68-38.71 131.74-38.71L131.74-38.71ZM156.24-51.94L156.24-51.94Q156.24-53.13 157.01-53.94L157.01-53.94L157.01-53.94Q157.78-54.74 158.97-54.74L158.97-54.74L158.97-54.74Q160.16-54.74 160.93-53.94L160.93-53.94L160.93-53.94Q161.70-53.13 161.70-51.94L161.70-51.94L161.70-15.12L161.70-15.12Q161.70-14.00 160.86-13.20L160.86-13.20L160.86-13.20Q160.02-12.39 158.97-12.39L158.97-12.39L158.97-12.39Q157.85-12.39 157.05-13.20L157.05-13.20L157.05-13.20Q156.24-14.00 156.24-15.12L156.24-15.12L156.24-51.94ZM158.97-8.19L158.97-8.19Q160.65-8.19 161.84-6.97L161.84-6.97L161.84-6.97Q163.03-5.74 163.03-4.06L163.03-4.06L163.03-4.06Q163.03-2.38 161.84-1.19L161.84-1.19L161.84-1.19Q160.65 0 158.97 0L158.97 0L158.97 0Q157.29 0 156.10-1.16L156.10-1.16L156.10-1.16Q154.91-2.31 154.91-4.06L154.91-4.06L154.91-4.06Q154.91-5.81 156.10-7.00L156.10-7.00L156.10-7.00Q157.29-8.19 158.97-8.19L158.97-8.19Z" fill="#ccc"></path></g></g><style>text {
  font-size: 64px;
  font-family: Arial Black;
  dominant-baseline: central;
  text-anchor: middle;
}</style></svg>